<mxfile host="app.diagrams.net" modified="2023-11-21T13:59:39.824Z" agent="Mozilla/5.0 (Macintosh; Intel Mac OS X 10_15_7) AppleWebKit/537.36 (KHTML, like Gecko) Chrome/119.0.0.0 Safari/537.36" etag="iatLRwUmC0JaGdzy8ri3" version="22.1.3" type="device">
  <diagram name="Page-1" id="-yVWf5U5GomzzCzLPF7r">
    <mxGraphModel dx="1058" dy="781" grid="1" gridSize="10" guides="1" tooltips="1" connect="1" arrows="1" fold="1" page="1" pageScale="1" pageWidth="827" pageHeight="1169" math="0" shadow="0">
      <root>
        <mxCell id="0" />
        <mxCell id="1" parent="0" />
        <mxCell id="5nrqIxGNl2aOhlGHYFel-6" value="" style="shape=flexArrow;endArrow=classic;html=1;rounded=0;strokeWidth=3;" parent="1" edge="1">
          <mxGeometry width="50" height="50" relative="1" as="geometry">
            <mxPoint x="270" y="250" as="sourcePoint" />
            <mxPoint x="310" y="249.5" as="targetPoint" />
          </mxGeometry>
        </mxCell>
        <mxCell id="r9SthREOg3ZQguJcwbZm-15" value="Sensors" style="text;html=1;strokeColor=none;fillColor=none;align=center;verticalAlign=middle;whiteSpace=wrap;rounded=0;container=0;" parent="1" vertex="1">
          <mxGeometry x="172" y="290" width="60" height="30" as="geometry" />
        </mxCell>
        <mxCell id="r9SthREOg3ZQguJcwbZm-16" value="" style="shape=image;verticalLabelPosition=bottom;labelBackgroundColor=default;verticalAlign=top;aspect=fixed;imageAspect=0;image=data:image/svg+xml,PHN2ZyB4bWxucz0iaHR0cDovL3d3dy53My5vcmcvMjAwMC9zdmciIHZpZXdCb3g9IjAgMCAyNCAyNCIgaGVpZ2h0PSI4MDBweCIgd2lkdGg9IjgwMHB4IiBmaWxsPSIjMDAwMDAwIj4mI3hhOzxwYXRoIGQ9Ik02LjM0OTk5IDYuMzQ4OTNMNC45Mjk5OSA0LjkyODkzQzYuODA1MjcgMy4wNTQyMiA5LjM0ODM1IDIuMDAxMDcgMTIgMi4wMDEwN0MxNC42NTE2IDIuMDAxMDcgMTcuMTk0NyAzLjA1NDIyIDE5LjA3IDQuOTI4OTNMMTcuNjUgNi4zNDg5M0MxNi4xNTAzIDQuODUyODMgMTQuMTE4NCA0LjAxMjYzIDEyIDQuMDEyNjNDOS44ODE2MiA0LjAxMjYzIDcuODQ5NzIgNC44NTI4MyA2LjM0OTk5IDYuMzQ4OTNaIi8+JiN4YTs8cGF0aCBkPSJNOS4xNzAwMSA5LjE2ODkzTDcuNzYwMDEgNy43NTg5M0M4Ljg4NTAxIDYuNjM1MzMgMTAuNDEgNi4wMDQyMSAxMiA2LjAwNDIxQzEzLjU5IDYuMDA0MjEgMTUuMTE1IDYuNjM1MzMgMTYuMjQgNy43NTg5M0wxNC44MiA5LjE3ODkzQzE0LjA3MzMgOC40Mjc3NiAxMy4wNTkyIDguMDAzNCAxMiA3Ljk5ODkzQzExLjQ3NDYgNy45OTg1MiAxMC45NTQyIDguMTAxNjMgMTAuNDY4NiA4LjMwMjM5QzkuOTgzMDMgOC41MDMxNCA5LjU0MTc2IDguNzk3NTkgOS4xNzAwMSA5LjE2ODkzWiIvPiYjeGE7PHBhdGggZD0iTTE4IDEwLjk5ODlIMTRDMTQgMTEuNTI5NCAxMy43ODkzIDEyLjAzODEgMTMuNDE0MiAxMi40MTMxQzEzLjAzOTEgMTIuNzg4MiAxMi41MzA0IDEyLjk5ODkgMTIgMTIuOTk4OUMxMS40Njk2IDEyLjk5ODkgMTAuOTYwOSAxMi43ODgyIDEwLjU4NTggMTIuNDEzMUMxMC4yMTA3IDEyLjAzODEgMTAgMTEuNTI5NCAxMCAxMC45OTg5SDZDNS40Njk1NyAxMC45OTg5IDQuOTYwODYgMTEuMjA5NiA0LjU4NTc5IDExLjU4NDdDNC4yMTA3MSAxMS45NTk4IDQgMTIuNDY4NSA0IDEyLjk5ODlWMjEuOTk4OUgyMFYxMi45OTg5QzIwIDEyLjQ2ODUgMTkuNzg5MyAxMS45NTk4IDE5LjQxNDIgMTEuNTg0N0MxOS4wMzkxIDExLjIwOTYgMTguNTMwNCAxMC45OTg5IDE4IDEwLjk5ODlaTTYgMTcuOTk4OVYxNC45OTg5SDE4VjE3Ljk5ODlINloiIGNsaXAtcnVsZT0iZXZlbm9kZCIgZmlsbC1ydWxlPSJldmVub2RkIi8+JiN4YTs8cGF0aCBkPSJNMTMgMTAuOTk4OUMxMyAxMS41NTEyIDEyLjU1MjMgMTEuOTk4OSAxMiAxMS45OTg5QzExLjQ0NzcgMTEuOTk4OSAxMSAxMS41NTEyIDExIDEwLjk5ODlDMTEgMTAuNDQ2NiAxMS40NDc3IDkuOTk4OTMgMTIgOS45OTg5M0MxMi41NTIzIDkuOTk4OTMgMTMgMTAuNDQ2NiAxMyAxMC45OTg5WiIvPiYjeGE7PC9zdmc+;container=0;" parent="1" vertex="1">
          <mxGeometry x="150" y="203" width="42" height="42" as="geometry" />
        </mxCell>
        <mxCell id="r9SthREOg3ZQguJcwbZm-17" value="" style="shape=image;verticalLabelPosition=bottom;labelBackgroundColor=default;verticalAlign=top;aspect=fixed;imageAspect=0;image=data:image/svg+xml,PHN2ZyB4bWxucz0iaHR0cDovL3d3dy53My5vcmcvMjAwMC9zdmciIGZpbGw9Im5vbmUiIHZpZXdCb3g9IjAgMCAyNCAyNCIgaGVpZ2h0PSI4MDBweCIgd2lkdGg9IjgwMHB4Ij4mI3hhOzxnIGlkPSJGaWxlIC8gRmlsZXMiPiYjeGE7PHBhdGggc3Ryb2tlLWxpbmVqb2luPSJyb3VuZCIgc3Ryb2tlLWxpbmVjYXA9InJvdW5kIiBzdHJva2Utd2lkdGg9IjIiIHN0cm9rZT0iIzAwMDAwMCIgZD0iTTkgNkg5LjMzNjg3QzkuNTgxNDYgNiA5LjcwMzg1IDYgOS44MTg5MyA2LjAyNzYzQzkuOTIwOTcgNi4wNTIxMyAxMC4wMTg5IDYuMDkyNjMgMTAuMTA4NCA2LjE0NzQ2QzEwLjIwOTMgNi4yMDkyOCAxMC4yOTU5IDYuMjk1OTEgMTAuNDY4OCA2LjQ2ODc1TDEzLjUzMTUgOS41MzE0OUMxMy43MDQ0IDkuNzA0NDQgMTMuNzkwNCA5Ljc5MDQ0IDEzLjg1MjMgOS44OTEzNUMxMy45MDcxIDkuOTgwODIgMTMuOTQ4MiAxMC4wNzg2IDEzLjk3MjcgMTAuMTgwN0MxNCAxMC4yOTQ2IDE0IDEwLjQxNTUgMTQgMTAuNjU1MlYxOE05IDZINC41OTk2MUM0LjAzOTU2IDYgMy43NTk4MSA2IDMuNTQ1OSA2LjEwODk5QzMuMzU3NzQgNi4yMDQ4NyAzLjIwNDg3IDYuMzU3NzQgMy4xMDg5OSA2LjU0NTlDMyA2Ljc1OTgxIDMgNy4wNDAwNCAzIDcuNjAwMVYxOS40MDAxQzMgMTkuOTYwMSAzIDIwLjIzOTggMy4xMDg5OSAyMC40NTM3QzMuMjA0ODcgMjAuNjQxOSAzLjM1Nzc0IDIwLjc5NTIgMy41NDU5IDIwLjg5MTFDMy43NTk2IDIxIDQuMDM5MDIgMjEgNC41OTggMjFMMTIuNDAxMSAyMUMxMi45NiAyMSAxMy4yNDA1IDIxIDEzLjQ1NDIgMjAuODkxMUMxMy42NDIzIDIwLjc5NTIgMTMuNzk0OCAyMC42NDIxIDEzLjg5MDYgMjAuNDUzOUMxMy45OTk2IDIwLjI0IDE0IDE5Ljk1OTkgMTQgMTkuMzk5OVYxOE05IDZWOS40QzkgOS45NjAwNSA5IDEwLjIzOTkgOS4xMDg5OSAxMC40NTM4QzkuMjA0ODcgMTAuNjQyIDkuMzU3NzQgMTAuNzk1MiA5LjU0NTkgMTAuODkxMUM5Ljc1OTYgMTEgMTAuMDM5IDExIDEwLjU5OCAxMUgxMy45OTk2TTEwIDYuMDAwMVY0LjYwMDFDMTAgNC4wNDAwNSAxMCAzLjc1OTgxIDEwLjEwOSAzLjU0NTlDMTAuMjA0OSAzLjM1Nzc0IDEwLjM1NzcgMy4yMDQ4NyAxMC41NDU5IDMuMTA4OTlDMTAuNzU5OCAzIDExLjAzOTYgMyAxMS41OTk2IDNIMTZNMTYgM0gxNi4zMzY5QzE2LjU4MTUgMyAxNi43MDM4IDMgMTYuODE4OSAzLjAyNzYzQzE2LjkyMSAzLjA1MjEzIDE3LjAxODkgMy4wOTI2MyAxNy4xMDg0IDMuMTQ3NDZDMTcuMjA5MyAzLjIwOTI4IDE3LjI5NTkgMy4yOTU5MiAxNy40Njg4IDMuNDY4NzVMMjAuNTMxNSA2LjUzMTQ5QzIwLjcwNDQgNi43MDQ0NCAyMC43OTA0IDYuNzkwNDQgMjAuODUyMyA2Ljg5MTM1QzIwLjkwNzEgNi45ODA4MiAyMC45NDgyIDcuMDc4NjMgMjAuOTcyNyA3LjE4MDY2QzIxIDcuMjk0NTggMjEgNy40MTU1MiAyMSA3LjY1NTE1VjE2LjM5OTlDMjEgMTYuOTU5OSAyMC45OTk2IDE3LjI0IDIwLjg5MDYgMTcuNDUzOUMyMC43OTQ4IDE3LjY0MjEgMjAuNjQyOSAxNy43OTUyIDIwLjQ1NDggMTcuODkxMUMyMC4yNDExIDE4IDE5Ljk2MSAxOCAxOS40MDIgMThIMTRNMTYgM1Y2LjRDMTYgNi45NjAwNSAxNiA3LjIzOTg4IDE2LjEwOSA3LjQ1MzhDMTYuMjA0OSA3LjY0MTk2IDE2LjM1NzcgNy43OTUyNCAxNi41NDU5IDcuODkxMTFDMTYuNzU5NiA4IDE3LjAzOSA4IDE3LjU5OCA4SDIwLjk5OTYiIGlkPSJWZWN0b3IiLz4mI3hhOzwvZz4mI3hhOzwvc3ZnPg==;container=0;" parent="1" vertex="1">
          <mxGeometry x="155" y="253" width="32" height="32" as="geometry" />
        </mxCell>
        <mxCell id="r9SthREOg3ZQguJcwbZm-18" value="" style="shape=image;verticalLabelPosition=bottom;labelBackgroundColor=default;verticalAlign=top;aspect=fixed;imageAspect=0;image=data:image/svg+xml,PHN2ZyB4bWxuczp4bGluaz0iaHR0cDovL3d3dy53My5vcmcvMTk5OS94bGluayIgeG1sbnM9Imh0dHA6Ly93d3cudzMub3JnLzIwMDAvc3ZnIiB4bWw6c3BhY2U9InByZXNlcnZlIiB2aWV3Qm94PSIwIDAgMzIuMDU1IDMyLjA1NSIgaWQ9IkNhcGFfMSIgdmVyc2lvbj0iMS4xIiB3aWR0aD0iODAwcHgiIGhlaWdodD0iODAwcHgiIGZpbGw9IiMwMDAwMDAiPiYjeGE7PGc+JiN4YTsJPHBhdGggZD0iTTMuOTY4LDEyLjA2MUMxLjc3NSwxMi4wNjEsMCwxMy44MzUsMCwxNi4wMjdjMCwyLjE5MiwxLjc3MywzLjk2NywzLjk2OCwzLjk2N2MyLjE4OSwwLDMuOTY2LTEuNzcyLDMuOTY2LTMuOTY3JiMxMDsmIzk7JiM5O0M3LjkzNCwxMy44MzUsNi4xNTcsMTIuMDYxLDMuOTY4LDEyLjA2MXogTTE2LjIzMywxMi4wNjFjLTIuMTg4LDAtMy45NjgsMS43NzMtMy45NjgsMy45NjVjMCwyLjE5MiwxLjc3OCwzLjk2NywzLjk2OCwzLjk2NyYjMTA7JiM5OyYjOTtzMy45Ny0xLjc3MiwzLjk3LTMuOTY3QzIwLjIwMSwxMy44MzUsMTguNDIzLDEyLjA2MSwxNi4yMzMsMTIuMDYxeiBNMjguMDksMTIuMDYxYy0yLjE5MiwwLTMuOTY5LDEuNzc0LTMuOTY5LDMuOTY3JiMxMDsmIzk7JiM5O2MwLDIuMTksMS43NzQsMy45NjUsMy45NjksMy45NjVjMi4xODgsMCwzLjk2NS0xLjc3MiwzLjk2NS0zLjk2NVMzMC4yNzgsMTIuMDYxLDI4LjA5LDEyLjA2MXoiLz4mI3hhOzwvZz4mI3hhOzwvc3ZnPg==;container=0;" parent="1" vertex="1">
          <mxGeometry x="192" y="240" width="20" height="20" as="geometry" />
        </mxCell>
        <mxCell id="r9SthREOg3ZQguJcwbZm-19" value="" style="shape=image;verticalLabelPosition=bottom;labelBackgroundColor=default;verticalAlign=top;aspect=fixed;imageAspect=0;image=data:image/svg+xml,PHN2ZyB4bWxucz0iaHR0cDovL3d3dy53My5vcmcvMjAwMC9zdmciIHZpZXdCb3g9IjAgMCAyNCAyNCIgaGVpZ2h0PSI4MDBweCIgd2lkdGg9IjgwMHB4IiBmaWxsPSIjMDAwMDAwIj4mI3hhOzxwYXRoIGQ9Ik02LjM0OTk5IDYuMzQ4OTNMNC45Mjk5OSA0LjkyODkzQzYuODA1MjcgMy4wNTQyMiA5LjM0ODM1IDIuMDAxMDcgMTIgMi4wMDEwN0MxNC42NTE2IDIuMDAxMDcgMTcuMTk0NyAzLjA1NDIyIDE5LjA3IDQuOTI4OTNMMTcuNjUgNi4zNDg5M0MxNi4xNTAzIDQuODUyODMgMTQuMTE4NCA0LjAxMjYzIDEyIDQuMDEyNjNDOS44ODE2MiA0LjAxMjYzIDcuODQ5NzIgNC44NTI4MyA2LjM0OTk5IDYuMzQ4OTNaIi8+JiN4YTs8cGF0aCBkPSJNOS4xNzAwMSA5LjE2ODkzTDcuNzYwMDEgNy43NTg5M0M4Ljg4NTAxIDYuNjM1MzMgMTAuNDEgNi4wMDQyMSAxMiA2LjAwNDIxQzEzLjU5IDYuMDA0MjEgMTUuMTE1IDYuNjM1MzMgMTYuMjQgNy43NTg5M0wxNC44MiA5LjE3ODkzQzE0LjA3MzMgOC40Mjc3NiAxMy4wNTkyIDguMDAzNCAxMiA3Ljk5ODkzQzExLjQ3NDYgNy45OTg1MiAxMC45NTQyIDguMTAxNjMgMTAuNDY4NiA4LjMwMjM5QzkuOTgzMDMgOC41MDMxNCA5LjU0MTc2IDguNzk3NTkgOS4xNzAwMSA5LjE2ODkzWiIvPiYjeGE7PHBhdGggZD0iTTE4IDEwLjk5ODlIMTRDMTQgMTEuNTI5NCAxMy43ODkzIDEyLjAzODEgMTMuNDE0MiAxMi40MTMxQzEzLjAzOTEgMTIuNzg4MiAxMi41MzA0IDEyLjk5ODkgMTIgMTIuOTk4OUMxMS40Njk2IDEyLjk5ODkgMTAuOTYwOSAxMi43ODgyIDEwLjU4NTggMTIuNDEzMUMxMC4yMTA3IDEyLjAzODEgMTAgMTEuNTI5NCAxMCAxMC45OTg5SDZDNS40Njk1NyAxMC45OTg5IDQuOTYwODYgMTEuMjA5NiA0LjU4NTc5IDExLjU4NDdDNC4yMTA3MSAxMS45NTk4IDQgMTIuNDY4NSA0IDEyLjk5ODlWMjEuOTk4OUgyMFYxMi45OTg5QzIwIDEyLjQ2ODUgMTkuNzg5MyAxMS45NTk4IDE5LjQxNDIgMTEuNTg0N0MxOS4wMzkxIDExLjIwOTYgMTguNTMwNCAxMC45OTg5IDE4IDEwLjk5ODlaTTYgMTcuOTk4OVYxNC45OTg5SDE4VjE3Ljk5ODlINloiIGNsaXAtcnVsZT0iZXZlbm9kZCIgZmlsbC1ydWxlPSJldmVub2RkIi8+JiN4YTs8cGF0aCBkPSJNMTMgMTAuOTk4OUMxMyAxMS41NTEyIDEyLjU1MjMgMTEuOTk4OSAxMiAxMS45OTg5QzExLjQ0NzcgMTEuOTk4OSAxMSAxMS41NTEyIDExIDEwLjk5ODlDMTEgMTAuNDQ2NiAxMS40NDc3IDkuOTk4OTMgMTIgOS45OTg5M0MxMi41NTIzIDkuOTk4OTMgMTMgMTAuNDQ2NiAxMyAxMC45OTg5WiIvPiYjeGE7PC9zdmc+;container=0;" parent="1" vertex="1">
          <mxGeometry x="212" y="203" width="42" height="42" as="geometry" />
        </mxCell>
        <mxCell id="r9SthREOg3ZQguJcwbZm-20" value="" style="shape=image;verticalLabelPosition=bottom;labelBackgroundColor=default;verticalAlign=top;aspect=fixed;imageAspect=0;image=data:image/svg+xml,PHN2ZyB4bWxucz0iaHR0cDovL3d3dy53My5vcmcvMjAwMC9zdmciIGZpbGw9Im5vbmUiIHZpZXdCb3g9IjAgMCAyNCAyNCIgaGVpZ2h0PSI4MDBweCIgd2lkdGg9IjgwMHB4Ij4mI3hhOzxnIGlkPSJGaWxlIC8gRmlsZXMiPiYjeGE7PHBhdGggc3Ryb2tlLWxpbmVqb2luPSJyb3VuZCIgc3Ryb2tlLWxpbmVjYXA9InJvdW5kIiBzdHJva2Utd2lkdGg9IjIiIHN0cm9rZT0iIzAwMDAwMCIgZD0iTTkgNkg5LjMzNjg3QzkuNTgxNDYgNiA5LjcwMzg1IDYgOS44MTg5MyA2LjAyNzYzQzkuOTIwOTcgNi4wNTIxMyAxMC4wMTg5IDYuMDkyNjMgMTAuMTA4NCA2LjE0NzQ2QzEwLjIwOTMgNi4yMDkyOCAxMC4yOTU5IDYuMjk1OTEgMTAuNDY4OCA2LjQ2ODc1TDEzLjUzMTUgOS41MzE0OUMxMy43MDQ0IDkuNzA0NDQgMTMuNzkwNCA5Ljc5MDQ0IDEzLjg1MjMgOS44OTEzNUMxMy45MDcxIDkuOTgwODIgMTMuOTQ4MiAxMC4wNzg2IDEzLjk3MjcgMTAuMTgwN0MxNCAxMC4yOTQ2IDE0IDEwLjQxNTUgMTQgMTAuNjU1MlYxOE05IDZINC41OTk2MUM0LjAzOTU2IDYgMy43NTk4MSA2IDMuNTQ1OSA2LjEwODk5QzMuMzU3NzQgNi4yMDQ4NyAzLjIwNDg3IDYuMzU3NzQgMy4xMDg5OSA2LjU0NTlDMyA2Ljc1OTgxIDMgNy4wNDAwNCAzIDcuNjAwMVYxOS40MDAxQzMgMTkuOTYwMSAzIDIwLjIzOTggMy4xMDg5OSAyMC40NTM3QzMuMjA0ODcgMjAuNjQxOSAzLjM1Nzc0IDIwLjc5NTIgMy41NDU5IDIwLjg5MTFDMy43NTk2IDIxIDQuMDM5MDIgMjEgNC41OTggMjFMMTIuNDAxMSAyMUMxMi45NiAyMSAxMy4yNDA1IDIxIDEzLjQ1NDIgMjAuODkxMUMxMy42NDIzIDIwLjc5NTIgMTMuNzk0OCAyMC42NDIxIDEzLjg5MDYgMjAuNDUzOUMxMy45OTk2IDIwLjI0IDE0IDE5Ljk1OTkgMTQgMTkuMzk5OVYxOE05IDZWOS40QzkgOS45NjAwNSA5IDEwLjIzOTkgOS4xMDg5OSAxMC40NTM4QzkuMjA0ODcgMTAuNjQyIDkuMzU3NzQgMTAuNzk1MiA5LjU0NTkgMTAuODkxMUM5Ljc1OTYgMTEgMTAuMDM5IDExIDEwLjU5OCAxMUgxMy45OTk2TTEwIDYuMDAwMVY0LjYwMDFDMTAgNC4wNDAwNSAxMCAzLjc1OTgxIDEwLjEwOSAzLjU0NTlDMTAuMjA0OSAzLjM1Nzc0IDEwLjM1NzcgMy4yMDQ4NyAxMC41NDU5IDMuMTA4OTlDMTAuNzU5OCAzIDExLjAzOTYgMyAxMS41OTk2IDNIMTZNMTYgM0gxNi4zMzY5QzE2LjU4MTUgMyAxNi43MDM4IDMgMTYuODE4OSAzLjAyNzYzQzE2LjkyMSAzLjA1MjEzIDE3LjAxODkgMy4wOTI2MyAxNy4xMDg0IDMuMTQ3NDZDMTcuMjA5MyAzLjIwOTI4IDE3LjI5NTkgMy4yOTU5MiAxNy40Njg4IDMuNDY4NzVMMjAuNTMxNSA2LjUzMTQ5QzIwLjcwNDQgNi43MDQ0NCAyMC43OTA0IDYuNzkwNDQgMjAuODUyMyA2Ljg5MTM1QzIwLjkwNzEgNi45ODA4MiAyMC45NDgyIDcuMDc4NjMgMjAuOTcyNyA3LjE4MDY2QzIxIDcuMjk0NTggMjEgNy40MTU1MiAyMSA3LjY1NTE1VjE2LjM5OTlDMjEgMTYuOTU5OSAyMC45OTk2IDE3LjI0IDIwLjg5MDYgMTcuNDUzOUMyMC43OTQ4IDE3LjY0MjEgMjAuNjQyOSAxNy43OTUyIDIwLjQ1NDggMTcuODkxMUMyMC4yNDExIDE4IDE5Ljk2MSAxOCAxOS40MDIgMThIMTRNMTYgM1Y2LjRDMTYgNi45NjAwNSAxNiA3LjIzOTg4IDE2LjEwOSA3LjQ1MzhDMTYuMjA0OSA3LjY0MTk2IDE2LjM1NzcgNy43OTUyNCAxNi41NDU5IDcuODkxMTFDMTYuNzU5NiA4IDE3LjAzOSA4IDE3LjU5OCA4SDIwLjk5OTYiIGlkPSJWZWN0b3IiLz4mI3hhOzwvZz4mI3hhOzwvc3ZnPg==;container=0;" parent="1" vertex="1">
          <mxGeometry x="217" y="253" width="32" height="32" as="geometry" />
        </mxCell>
        <mxCell id="wQsuqYVdATBKCk65zNBt-2" value="" style="group" parent="1" vertex="1" connectable="0">
          <mxGeometry x="414" y="221" width="60" height="69" as="geometry" />
        </mxCell>
        <mxCell id="r9SthREOg3ZQguJcwbZm-23" value="" style="shape=image;verticalLabelPosition=bottom;labelBackgroundColor=default;verticalAlign=top;aspect=fixed;imageAspect=0;image=data:image/svg+xml,PHN2ZyB4bWxucz0iaHR0cDovL3d3dy53My5vcmcvMjAwMC9zdmciIGZpbGw9Im5vbmUiIHZpZXdCb3g9IjAgMCAyNCAyNCIgaGVpZ2h0PSI4MDBweCIgd2lkdGg9IjgwMHB4Ij4mI3hhOzxnIGlkPSJGaWxlIC8gRmlsZXMiPiYjeGE7PHBhdGggc3Ryb2tlLWxpbmVqb2luPSJyb3VuZCIgc3Ryb2tlLWxpbmVjYXA9InJvdW5kIiBzdHJva2Utd2lkdGg9IjIiIHN0cm9rZT0iIzAwMDAwMCIgZD0iTTkgNkg5LjMzNjg3QzkuNTgxNDYgNiA5LjcwMzg1IDYgOS44MTg5MyA2LjAyNzYzQzkuOTIwOTcgNi4wNTIxMyAxMC4wMTg5IDYuMDkyNjMgMTAuMTA4NCA2LjE0NzQ2QzEwLjIwOTMgNi4yMDkyOCAxMC4yOTU5IDYuMjk1OTEgMTAuNDY4OCA2LjQ2ODc1TDEzLjUzMTUgOS41MzE0OUMxMy43MDQ0IDkuNzA0NDQgMTMuNzkwNCA5Ljc5MDQ0IDEzLjg1MjMgOS44OTEzNUMxMy45MDcxIDkuOTgwODIgMTMuOTQ4MiAxMC4wNzg2IDEzLjk3MjcgMTAuMTgwN0MxNCAxMC4yOTQ2IDE0IDEwLjQxNTUgMTQgMTAuNjU1MlYxOE05IDZINC41OTk2MUM0LjAzOTU2IDYgMy43NTk4MSA2IDMuNTQ1OSA2LjEwODk5QzMuMzU3NzQgNi4yMDQ4NyAzLjIwNDg3IDYuMzU3NzQgMy4xMDg5OSA2LjU0NTlDMyA2Ljc1OTgxIDMgNy4wNDAwNCAzIDcuNjAwMVYxOS40MDAxQzMgMTkuOTYwMSAzIDIwLjIzOTggMy4xMDg5OSAyMC40NTM3QzMuMjA0ODcgMjAuNjQxOSAzLjM1Nzc0IDIwLjc5NTIgMy41NDU5IDIwLjg5MTFDMy43NTk2IDIxIDQuMDM5MDIgMjEgNC41OTggMjFMMTIuNDAxMSAyMUMxMi45NiAyMSAxMy4yNDA1IDIxIDEzLjQ1NDIgMjAuODkxMUMxMy42NDIzIDIwLjc5NTIgMTMuNzk0OCAyMC42NDIxIDEzLjg5MDYgMjAuNDUzOUMxMy45OTk2IDIwLjI0IDE0IDE5Ljk1OTkgMTQgMTkuMzk5OVYxOE05IDZWOS40QzkgOS45NjAwNSA5IDEwLjIzOTkgOS4xMDg5OSAxMC40NTM4QzkuMjA0ODcgMTAuNjQyIDkuMzU3NzQgMTAuNzk1MiA5LjU0NTkgMTAuODkxMUM5Ljc1OTYgMTEgMTAuMDM5IDExIDEwLjU5OCAxMUgxMy45OTk2TTEwIDYuMDAwMVY0LjYwMDFDMTAgNC4wNDAwNSAxMCAzLjc1OTgxIDEwLjEwOSAzLjU0NTlDMTAuMjA0OSAzLjM1Nzc0IDEwLjM1NzcgMy4yMDQ4NyAxMC41NDU5IDMuMTA4OTlDMTAuNzU5OCAzIDExLjAzOTYgMyAxMS41OTk2IDNIMTZNMTYgM0gxNi4zMzY5QzE2LjU4MTUgMyAxNi43MDM4IDMgMTYuODE4OSAzLjAyNzYzQzE2LjkyMSAzLjA1MjEzIDE3LjAxODkgMy4wOTI2MyAxNy4xMDg0IDMuMTQ3NDZDMTcuMjA5MyAzLjIwOTI4IDE3LjI5NTkgMy4yOTU5MiAxNy40Njg4IDMuNDY4NzVMMjAuNTMxNSA2LjUzMTQ5QzIwLjcwNDQgNi43MDQ0NCAyMC43OTA0IDYuNzkwNDQgMjAuODUyMyA2Ljg5MTM1QzIwLjkwNzEgNi45ODA4MiAyMC45NDgyIDcuMDc4NjMgMjAuOTcyNyA3LjE4MDY2QzIxIDcuMjk0NTggMjEgNy40MTU1MiAyMSA3LjY1NTE1VjE2LjM5OTlDMjEgMTYuOTU5OSAyMC45OTk2IDE3LjI0IDIwLjg5MDYgMTcuNDUzOUMyMC43OTQ4IDE3LjY0MjEgMjAuNjQyOSAxNy43OTUyIDIwLjQ1NDggMTcuODkxMUMyMC4yNDExIDE4IDE5Ljk2MSAxOCAxOS40MDIgMThIMTRNMTYgM1Y2LjRDMTYgNi45NjAwNSAxNiA3LjIzOTg4IDE2LjEwOSA3LjQ1MzhDMTYuMjA0OSA3LjY0MTk2IDE2LjM1NzcgNy43OTUyNCAxNi41NDU5IDcuODkxMTFDMTYuNzU5NiA4IDE3LjAzOSA4IDE3LjU5OCA4SDIwLjk5OTYiIGlkPSJWZWN0b3IiLz4mI3hhOzwvZz4mI3hhOzwvc3ZnPg==;" parent="wQsuqYVdATBKCk65zNBt-2" vertex="1">
          <mxGeometry x="14" width="32" height="32" as="geometry" />
        </mxCell>
        <mxCell id="r9SthREOg3ZQguJcwbZm-26" value="&quot;Useful&quot;&lt;br&gt;Files" style="text;html=1;strokeColor=none;fillColor=none;align=center;verticalAlign=middle;whiteSpace=wrap;rounded=0;" parent="wQsuqYVdATBKCk65zNBt-2" vertex="1">
          <mxGeometry y="39" width="60" height="30" as="geometry" />
        </mxCell>
        <mxCell id="wQsuqYVdATBKCk65zNBt-3" value="" style="shape=image;verticalLabelPosition=bottom;labelBackgroundColor=default;verticalAlign=top;aspect=fixed;imageAspect=0;image=data:image/svg+xml,PHN2ZyB4bWxuczp4bGluaz0iaHR0cDovL3d3dy53My5vcmcvMTk5OS94bGluayIgeG1sbnM9Imh0dHA6Ly93d3cudzMub3JnLzIwMDAvc3ZnIiB4bWw6c3BhY2U9InByZXNlcnZlIiB2aWV3Qm94PSIwIDAgNTEyIDUxMiIgaWQ9Il94MzJfIiB2ZXJzaW9uPSIxLjEiIHdpZHRoPSI4MDBweCIgaGVpZ2h0PSI4MDBweCI+JiN4YTs8c3R5bGUgdHlwZT0idGV4dC9jc3MiPiYjeGE7CS5zdDB7ZmlsbDojMDAwMDAwO30mI3hhOzwvc3R5bGU+JiN4YTs8Zz4mI3hhOwk8cGF0aCBkPSJNMzk2LjEzOCw4NS4yOTVjLTEzLjE3Mi0yNS4wMzctMzMuNzk1LTQ1Ljg5OC01OS4zNDItNjEuMDNDMzExLjI2LDkuMiwyODAuNDM1LDAuMDAxLDI0Ni45OCwwLjAwMSYjMTA7JiM5OyYjOTtjLTQxLjIzOC0wLjEwMi03NS41LDEwLjY0Mi0xMDEuMzU5LDI1LjUyMWMtMjUuOTYyLDE0LjgyNi0zNy4xNTYsMzIuMDg4LTM3LjE1NiwzMi4wODhjLTQuMzYzLDMuNzg2LTYuODI0LDkuMjk0LTYuNzIxLDE1LjA1NiYjMTA7JiM5OyYjOTtjMC4xMTgsNS43NywyLjc3NSwxMS4xODYsNy4yNzMsMTQuNzg0bDM1LjkzMywyOC43OGM3LjMyNCw1Ljg2NCwxNy44MDYsNS42NDQsMjQuODc1LTAuNTE4YzAsMCw0LjQxNC03Ljk3OCwxOC4yNDctMTUuODgmIzEwOyYjOTsmIzk7YzEzLjkxLTcuODUsMzEuOTQ1LTE0LjE3Myw1OC45MDgtMTQuMjU4YzIzLjUxNy0wLjA1MSw0NC4wMjIsOC43MjUsNTguMDE2LDIwLjcxN2M2Ljk1Miw1Ljk0MSwxMi4xNDUsMTIuNTk0LDE1LjMyOCwxOC42OCYjMTA7JiM5OyYjOTtjMy4yMDgsNi4xMzYsNC4zNzksMTEuNSw0LjM2MywxNS41NzRjLTAuMDY4LDEzLjc2Ni0yLjc0MiwyMi43Ny02LjYwMywzMC40NDJjLTIuOTQ1LDUuNzI5LTYuNzg5LDEwLjgxMy0xMS43MzgsMTUuNzQ0JiMxMDsmIzk7JiM5O2MtNy4zODQsNy4zODQtMTcuMzk4LDE0LjIwNy0yOC42MzQsMjAuNDc5Yy0xMS4yNDUsNi4zNDgtMjMuMzY1LDExLjkzMi0zNS42MTIsMTguNjhjLTEzLjk3OCw3Ljc0LTI4Ljc3LDE4Ljg1OC0zOS43MDEsMzUuNTQ0JiMxMDsmIzk7JiM5O2MtNS40NDksOC4yNDktOS43MSwxNy42ODYtMTIuNDE2LDI3LjY0MWMtMi43NDIsOS45NjQtMy45OCwyMC40MTItMy45OCwzMS4wNzFjMCwxMS4zNzIsMCwyMC43MDgsMCwyMC43MDgmIzEwOyYjOTsmIzk7YzAsMTAuNzE5LDguNjksMTkuNDEsMTkuNDEsMTkuNDFoNDYuNzYyYzEwLjcxOSwwLDE5LjQxLTguNjkxLDE5LjQxLTE5LjQxYzAsMCwwLTkuMzM2LDAtMjAuNzA4YzAtNC4xMDcsMC40NjctNi43NTUsMC45MTctOC40MzYmIzEwOyYjOTsmIzk7YzAuNzczLTIuNTEyLDEuMjA2LTMuMTQsMi40Ny00LjY2OGMxLjI5LTEuNDUyLDMuODk1LTMuNjc0LDguNjk4LTYuMzMxYzcuMDE5LTMuOTQ2LDE4LjI5OC05LjI3NiwzMS4wNy0xNi4xNzYmIzEwOyYjOTsmIzk7YzE5LjEyMS0xMC40NTYsNDIuMzY3LTI0LjY0Niw2MS45NzItNDguMDYyYzkuNzUyLTExLjY4NiwxOC4zNzQtMjUuNzU4LDI0LjMyMy00MS45NjhjNi4wMDEtMTYuMjEsOS4yNDItMzQuNDMxLDkuMjI2LTUzLjk2JiMxMDsmIzk7JiM5O0M0MTAuMjQzLDEyMC43NjEsNDA0Ljg3OSwxMDEuOTcxLDM5Ni4xMzgsODUuMjk1eiIgY2xhc3M9InN0MCIvPiYjeGE7CTxwYXRoIGQ9Ik0yMjguODA5LDQwNi40NGMtMjkuMTUyLDAtNTIuNzg4LDIzLjY0NC01Mi43ODgsNTIuNzg4YzAsMjkuMTM2LDIzLjYzNyw1Mi43NzIsNTIuNzg4LDUyLjc3MiYjMTA7JiM5OyYjOTtjMjkuMTM2LDAsNTIuNzYzLTIzLjYzNiw1Mi43NjMtNTIuNzcyQzI4MS41NzIsNDMwLjA4NCwyNTcuOTQ1LDQwNi40NCwyMjguODA5LDQwNi40NHoiIGNsYXNzPSJzdDAiLz4mI3hhOzwvZz4mI3hhOzwvc3ZnPg==;" parent="1" vertex="1">
          <mxGeometry x="320" y="235" width="30" height="30" as="geometry" />
        </mxCell>
        <mxCell id="wQsuqYVdATBKCk65zNBt-5" value="" style="shape=flexArrow;endArrow=classic;html=1;rounded=0;strokeWidth=3;" parent="1" edge="1">
          <mxGeometry width="50" height="50" relative="1" as="geometry">
            <mxPoint x="360" y="250" as="sourcePoint" />
            <mxPoint x="400" y="249.5" as="targetPoint" />
          </mxGeometry>
        </mxCell>
      </root>
    </mxGraphModel>
  </diagram>
</mxfile>
